{
    "asset" : {
        "generator" : "Khronos glTF Blender I/O v1.6.16",
        "version" : "2.0"
    },
    "scene" : 0,
    "scenes" : [
        {
            "name" : "Scene",
            "nodes" : [
                0
            ]
        }
    ],
    "nodes" : [
        {
            "mesh" : 0,
            "name" : "Crossbow_1"
        }
    ],
    "materials" : [
        {
            "doubleSided" : true,
            "name" : "Black",
            "pbrMetallicRoughness" : {
                "baseColorFactor" : [
                    0.0290982685983181,
                    0.0290982685983181,
                    0.0290982685983181,
                    1
                ],
                "metallicFactor" : 0,
                "roughnessFactor" : 0.5
            }
        },
        {
            "doubleSided" : true,
            "name" : "Grey",
            "pbrMetallicRoughness" : {
                "baseColorFactor" : [
                    0.10247143357992172,
                    0.10247143357992172,
                    0.10247143357992172,
                    1
                ],
                "metallicFactor" : 0,
                "roughnessFactor" : 0.5
            }
        },
        {
            "doubleSided" : true,
            "name" : "White",
            "pbrMetallicRoughness" : {
                "baseColorFactor" : [
                    0.4575273394584656,
                    0.4575273394584656,
                    0.4575273394584656,
                    1
                ],
                "metallicFactor" : 0,
                "roughnessFactor" : 0.5
            }
        },
        {
            "doubleSided" : true,
            "name" : "Main",
            "pbrMetallicRoughness" : {
                "baseColorFactor" : [
                    0.6151726245880127,
                    0.21127153933048248,
                    0.028615577146410942,
                    1
                ],
                "metallicFactor" : 0,
                "roughnessFactor" : 0.5
            }
        }
    ],
    "meshes" : [
        {
            "name" : "Cube.114",
            "primitives" : [
                {
                    "attributes" : {
                        "POSITION" : 0,
                        "NORMAL" : 1
                    },
                    "indices" : 2,
                    "material" : 0
                },
                {
                    "attributes" : {
                        "POSITION" : 3,
                        "NORMAL" : 4
                    },
                    "indices" : 5,
                    "material" : 1
                },
                {
                    "attributes" : {
                        "POSITION" : 6,
                        "NORMAL" : 7
                    },
                    "indices" : 8,
                    "material" : 2
                },
                {
                    "attributes" : {
                        "POSITION" : 9,
                        "NORMAL" : 10
                    },
                    "indices" : 11,
                    "material" : 3
                }
            ]
        }
    ],
    "accessors" : [
        {
            "bufferView" : 0,
            "componentType" : 5126,
            "count" : 1126,
            "max" : [
                0.9545076489448547,
                0.40413016080856323,
                0.7396109700202942
            ],
            "min" : [
                -0.9072355628013611,
                -0.35429924726486206,
                -0.7397065162658691
            ],
            "type" : "VEC3"
        },
        {
            "bufferView" : 1,
            "componentType" : 5126,
            "count" : 1126,
            "type" : "VEC3"
        },
        {
            "bufferView" : 2,
            "componentType" : 5123,
            "count" : 2676,
            "type" : "SCALAR"
        },
        {
            "bufferView" : 3,
            "componentType" : 5126,
            "count" : 593,
            "max" : [
                0.8933860659599304,
                0.34466519951820374,
                0.7770142555236816
            ],
            "min" : [
                -0.7052512764930725,
                -0.427540123462677,
                -0.7770142555236816
            ],
            "type" : "VEC3"
        },
        {
            "bufferView" : 4,
            "componentType" : 5126,
            "count" : 593,
            "type" : "VEC3"
        },
        {
            "bufferView" : 5,
            "componentType" : 5123,
            "count" : 1188,
            "type" : "SCALAR"
        },
        {
            "bufferView" : 6,
            "componentType" : 5126,
            "count" : 903,
            "max" : [
                0.9545806646347046,
                0.4241967797279358,
                0.7574902176856995
            ],
            "min" : [
                -0.8834649324417114,
                -0.45695632696151733,
                -0.7574902176856995
            ],
            "type" : "VEC3"
        },
        {
            "bufferView" : 7,
            "componentType" : 5126,
            "count" : 903,
            "type" : "VEC3"
        },
        {
            "bufferView" : 8,
            "componentType" : 5123,
            "count" : 2676,
            "type" : "SCALAR"
        },
        {
            "bufferView" : 9,
            "componentType" : 5126,
            "count" : 1032,
            "max" : [
                0.9073200821876526,
                0.2769128680229187,
                0.9601701498031616
            ],
            "min" : [
                -0.8834649324417114,
                -0.3673996925354004,
                -0.9601701498031616
            ],
            "type" : "VEC3"
        },
        {
            "bufferView" : 10,
            "componentType" : 5126,
            "count" : 1032,
            "type" : "VEC3"
        },
        {
            "bufferView" : 11,
            "componentType" : 5123,
            "count" : 2226,
            "type" : "SCALAR"
        }
    ],
    "bufferViews" : [
        {
            "buffer" : 0,
            "byteLength" : 13512,
            "byteOffset" : 0
        },
        {
            "buffer" : 0,
            "byteLength" : 13512,
            "byteOffset" : 13512
        },
        {
            "buffer" : 0,
            "byteLength" : 5352,
            "byteOffset" : 27024
        },
        {
            "buffer" : 0,
            "byteLength" : 7116,
            "byteOffset" : 32376
        },
        {
            "buffer" : 0,
            "byteLength" : 7116,
            "byteOffset" : 39492
        },
        {
            "buffer" : 0,
            "byteLength" : 2376,
            "byteOffset" : 46608
        },
        {
            "buffer" : 0,
            "byteLength" : 10836,
            "byteOffset" : 48984
        },
        {
            "buffer" : 0,
            "byteLength" : 10836,
            "byteOffset" : 59820
        },
        {
            "buffer" : 0,
            "byteLength" : 5352,
            "byteOffset" : 70656
        },
        {
            "buffer" : 0,
            "byteLength" : 12384,
            "byteOffset" : 76008
        },
        {
            "buffer" : 0,
            "byteLength" : 12384,
            "byteOffset" : 88392
        },
        {
            "buffer" : 0,
            "byteLength" : 4452,
            "byteOffset" : 100776
        }
    ],
    "buffers" : [
        {
            "byteLength" : 105228,
            "uri" : "data:application/octet-stream;base64,"
        }
    ]
}
