{
    "asset" : {
        "generator" : "Khronos glTF Blender I/O v1.6.16",
        "version" : "2.0"
    },
    "scene" : 0,
    "scenes" : [
        {
            "name" : "Scene",
            "nodes" : [
                0
            ]
        }
    ],
    "nodes" : [
        {
            "mesh" : 0,
            "name" : "Grenade"
        }
    ],
    "materials" : [
        {
            "doubleSided" : true,
            "name" : "Black",
            "pbrMetallicRoughness" : {
                "baseColorFactor" : [
                    0.0290982685983181,
                    0.0290982685983181,
                    0.0290982685983181,
                    1
                ],
                "metallicFactor" : 0,
                "roughnessFactor" : 0.5
            }
        },
        {
            "doubleSided" : true,
            "name" : "Main",
            "pbrMetallicRoughness" : {
                "baseColorFactor" : [
                    0.6151726245880127,
                    0.21127153933048248,
                    0.028615577146410942,
                    1
                ],
                "metallicFactor" : 0,
                "roughnessFactor" : 0.5
            }
        },
        {
            "doubleSided" : true,
            "name" : "White",
            "pbrMetallicRoughness" : {
                "baseColorFactor" : [
                    0.4575273394584656,
                    0.4575273394584656,
                    0.4575273394584656,
                    1
                ],
                "metallicFactor" : 0,
                "roughnessFactor" : 0.5
            }
        },
        {
            "doubleSided" : true,
            "name" : "Grey",
            "pbrMetallicRoughness" : {
                "baseColorFactor" : [
                    0.10247143357992172,
                    0.10247143357992172,
                    0.10247143357992172,
                    1
                ],
                "metallicFactor" : 0,
                "roughnessFactor" : 0.5
            }
        }
    ],
    "meshes" : [
        {
            "name" : "Cylinder.013",
            "primitives" : [
                {
                    "attributes" : {
                        "POSITION" : 0,
                        "NORMAL" : 1
                    },
                    "indices" : 2,
                    "material" : 0
                },
                {
                    "attributes" : {
                        "POSITION" : 3,
                        "NORMAL" : 4
                    },
                    "indices" : 5,
                    "material" : 1
                },
                {
                    "attributes" : {
                        "POSITION" : 6,
                        "NORMAL" : 7
                    },
                    "indices" : 8,
                    "material" : 2
                },
                {
                    "attributes" : {
                        "POSITION" : 9,
                        "NORMAL" : 10
                    },
                    "indices" : 11,
                    "material" : 3
                }
            ]
        }
    ],
    "accessors" : [
        {
            "bufferView" : 0,
            "componentType" : 5126,
            "count" : 156,
            "max" : [
                0.07233656197786331,
                0.1455794721841812,
                0.07233656197786331
            ],
            "min" : [
                -0.08746262639760971,
                0.06375254690647125,
                -0.07233656197786331
            ],
            "type" : "VEC3"
        },
        {
            "bufferView" : 1,
            "componentType" : 5126,
            "count" : 156,
            "type" : "VEC3"
        },
        {
            "bufferView" : 2,
            "componentType" : 5123,
            "count" : 462,
            "type" : "SCALAR"
        },
        {
            "bufferView" : 3,
            "componentType" : 5126,
            "count" : 124,
            "max" : [
                0.08129371702671051,
                0.1185925230383873,
                0.06725309789180756
            ],
            "min" : [
                -0.04914499446749687,
                -0.1328187882900238,
                -0.06725309789180756
            ],
            "type" : "VEC3"
        },
        {
            "bufferView" : 4,
            "componentType" : 5126,
            "count" : 124,
            "type" : "VEC3"
        },
        {
            "bufferView" : 5,
            "componentType" : 5123,
            "count" : 318,
            "type" : "SCALAR"
        },
        {
            "bufferView" : 6,
            "componentType" : 5126,
            "count" : 193,
            "max" : [
                0.068750761449337,
                0.071468286216259,
                0.068750761449337
            ],
            "min" : [
                -0.07794252783060074,
                -0.15556633472442627,
                -0.068750761449337
            ],
            "type" : "VEC3"
        },
        {
            "bufferView" : 7,
            "componentType" : 5126,
            "count" : 193,
            "type" : "VEC3"
        },
        {
            "bufferView" : 8,
            "componentType" : 5123,
            "count" : 630,
            "type" : "SCALAR"
        },
        {
            "bufferView" : 9,
            "componentType" : 5126,
            "count" : 433,
            "max" : [
                0.08566142618656158,
                0.14772091805934906,
                0.06133958697319031
            ],
            "min" : [
                -0.09283644706010818,
                -0.08171053975820541,
                -0.06133958697319031
            ],
            "type" : "VEC3"
        },
        {
            "bufferView" : 10,
            "componentType" : 5126,
            "count" : 433,
            "type" : "VEC3"
        },
        {
            "bufferView" : 11,
            "componentType" : 5123,
            "count" : 1242,
            "type" : "SCALAR"
        }
    ],
    "bufferViews" : [
        {
            "buffer" : 0,
            "byteLength" : 1872,
            "byteOffset" : 0
        },
        {
            "buffer" : 0,
            "byteLength" : 1872,
            "byteOffset" : 1872
        },
        {
            "buffer" : 0,
            "byteLength" : 924,
            "byteOffset" : 3744
        },
        {
            "buffer" : 0,
            "byteLength" : 1488,
            "byteOffset" : 4668
        },
        {
            "buffer" : 0,
            "byteLength" : 1488,
            "byteOffset" : 6156
        },
        {
            "buffer" : 0,
            "byteLength" : 636,
            "byteOffset" : 7644
        },
        {
            "buffer" : 0,
            "byteLength" : 2316,
            "byteOffset" : 8280
        },
        {
            "buffer" : 0,
            "byteLength" : 2316,
            "byteOffset" : 10596
        },
        {
            "buffer" : 0,
            "byteLength" : 1260,
            "byteOffset" : 12912
        },
        {
            "buffer" : 0,
            "byteLength" : 5196,
            "byteOffset" : 14172
        },
        {
            "buffer" : 0,
            "byteLength" : 5196,
            "byteOffset" : 19368
        },
        {
            "buffer" : 0,
            "byteLength" : 2484,
            "byteOffset" : 24564
        }
    ],
    "buffers" : [
        {
            "byteLength" : 27048,
            "uri" : "data:application/octet-stream;base64,"
        }
    ]
}
