# Blender v2.74 (sub 0) OBJ File: ''
# www.blender.org
mtllib ATM_WALL_BIG.mtl
o Plane.001_Plane.002
v 0.245772 -0.466688 0.515754
v 0.245772 -0.466688 -0.759301
v 0.245772 -0.430429 -0.720165
v 0.245772 -0.430429 0.476618
v 0.204368 -0.186677 -0.720165
v 0.219208 -0.274039 -0.453911
v 0.230932 -0.343066 -0.453911
v 0.245772 0.714651 -0.759301
v 0.245772 0.714651 0.515754
v 0.245772 0.678391 0.476618
v 0.245772 0.678391 -0.720165
v -0.189049 -0.089161 -0.720165
v -0.189049 -0.089161 0.476618
v -0.131709 -0.104208 0.368798
v -0.131709 -0.104208 0.033216
v -0.267276 0.529997 0.476618
v -0.089931 0.581293 0.295905
v 0.068426 0.627096 0.295905
v -0.267276 0.529997 -0.720165
v 0.204368 -0.186677 0.476618
v -0.194722 -0.044267 -0.532535
v -0.194722 -0.044267 0.288989
v -0.269064 -0.021425 -0.484113
v -0.269064 -0.021425 0.240566
v -0.261604 0.485103 0.288989
v -0.261604 0.485103 -0.532535
v -0.202594 0.018042 -0.550954
v -0.202594 0.018042 -0.701746
v -0.325375 0.445333 0.240566
v -0.325375 0.445333 -0.484113
v -0.125160 -0.077520 0.368798
v -0.125160 -0.077520 0.033216
v 0.160296 -0.175863 0.033216
v 0.160296 -0.175863 0.368798
v 0.166846 -0.149175 0.368798
v 0.166846 -0.149175 0.033216
v -0.198872 -0.011410 -0.701746
v -0.198872 -0.011410 -0.550954
v 0.172167 -0.282030 -0.453911
v 0.190912 -0.299475 -0.453911
v 0.194820 -0.322484 -0.453911
v 0.183892 -0.351057 -0.453911
v 0.230932 -0.343066 0.210365
v 0.219208 -0.274039 0.210365
v 0.183892 -0.351057 0.210365
v 0.194820 -0.322484 0.210365
v 0.190912 -0.299475 0.210365
v 0.172167 -0.282030 0.210365
v 0.068426 0.627096 -0.539451
v -0.089931 0.581293 -0.539451
v 0.095405 -0.124409 0.341010
v 0.095405 -0.124409 0.289987
v 0.092488 -0.136640 0.289987
v 0.092488 -0.136640 0.341010
v 0.125452 -0.131575 0.289987
v 0.122535 -0.143807 0.289987
v 0.125452 -0.131575 0.341010
v 0.122535 -0.143807 0.341010
v 0.095405 -0.124409 0.264475
v 0.095405 -0.124409 0.213451
v 0.092488 -0.136640 0.213451
v 0.092488 -0.136640 0.264475
v 0.125452 -0.131575 0.213451
v 0.122535 -0.143807 0.213451
v 0.125452 -0.131575 0.264475
v 0.122535 -0.143807 0.264475
v 0.095405 -0.124409 0.187940
v 0.095405 -0.124409 0.136917
v 0.092488 -0.136640 0.136917
v 0.092488 -0.136640 0.187940
v 0.125452 -0.131575 0.136917
v 0.122535 -0.143807 0.136917
v 0.125452 -0.131575 0.187940
v 0.122535 -0.143807 0.187940
v 0.029474 -0.108890 0.341010
v 0.029474 -0.108890 0.289987
v 0.026558 -0.121122 0.289987
v 0.026558 -0.121122 0.341010
v 0.059523 -0.116057 0.289987
v 0.056605 -0.128288 0.289987
v 0.059523 -0.116057 0.341010
v 0.056605 -0.128288 0.341010
v 0.029474 -0.108890 0.264475
v 0.029474 -0.108890 0.213451
v 0.026558 -0.121122 0.213451
v 0.026558 -0.121122 0.264475
v 0.059523 -0.116057 0.213451
v 0.056605 -0.128288 0.213451
v 0.059523 -0.116057 0.264475
v 0.056605 -0.128288 0.264475
v 0.029474 -0.108890 0.187940
v 0.029474 -0.108890 0.136917
v 0.026558 -0.121122 0.136917
v 0.026558 -0.121122 0.187940
v 0.059523 -0.116057 0.136917
v 0.056605 -0.128288 0.136917
v 0.059523 -0.116057 0.187940
v 0.056605 -0.128288 0.187940
v -0.036456 -0.093371 0.341010
v -0.036456 -0.093371 0.289987
v -0.039373 -0.105603 0.289987
v -0.039373 -0.105603 0.341010
v -0.006407 -0.100538 0.289987
v -0.009326 -0.112770 0.289987
v -0.006407 -0.100538 0.341010
v -0.009326 -0.112770 0.341010
v -0.036456 -0.093371 0.264475
v -0.036456 -0.093371 0.213451
v -0.039373 -0.105603 0.213451
v -0.039373 -0.105603 0.264475
v -0.006407 -0.100538 0.213451
v -0.009326 -0.112770 0.213451
v -0.006407 -0.100538 0.264475
v -0.009326 -0.112770 0.264475
v -0.036456 -0.093371 0.187940
v -0.036456 -0.093371 0.136917
v -0.039373 -0.105603 0.136917
v -0.039373 -0.105603 0.187940
v -0.006407 -0.100538 0.136917
v -0.009326 -0.112770 0.136917
v -0.006407 -0.100538 0.187940
v -0.009326 -0.112770 0.187940
v 0.095405 -0.124409 0.097340
v 0.095405 -0.124409 0.042756
v 0.092488 -0.136640 0.042756
v 0.092488 -0.136640 0.097340
v 0.125452 -0.131575 0.042756
v 0.122535 -0.143807 0.042756
v 0.125452 -0.131575 0.097340
v 0.122535 -0.143807 0.097340
v -0.036456 -0.093371 0.097340
v -0.036456 -0.093371 0.042756
v -0.039373 -0.105603 0.042756
v -0.039373 -0.105603 0.097340
v -0.006407 -0.100538 0.042756
v -0.009326 -0.112770 0.042756
v -0.006407 -0.100538 0.097340
v -0.009326 -0.112770 0.097340
v 0.029474 -0.108890 0.097340
v 0.029474 -0.108890 0.042756
v 0.026558 -0.121122 0.042756
v 0.026558 -0.121122 0.097340
v 0.059523 -0.116057 0.042756
v 0.056605 -0.128288 0.042756
v 0.059523 -0.116057 0.097340
v 0.056605 -0.128288 0.097340
v -0.205448 0.006735 -0.689665
v -0.205448 0.006735 -0.563035
v -0.274635 -0.002007 -0.563035
v -0.274635 -0.002007 -0.689665
v -0.273638 -0.009909 -0.689665
v -0.273638 -0.009909 -0.563035
v -0.204450 -0.001167 -0.563035
v -0.204450 -0.001167 -0.689665
v -0.352491 -0.682544 0.702470
v -0.352491 -0.682544 -0.946017
v -0.352491 -0.905278 -0.946017
v -0.352491 -0.905279 0.702470
v -0.154098 1.090206 -0.946017
v -0.154098 1.447220 -0.946017
v 0.105794 1.271803 -0.946017
v 0.105794 0.854699 -0.946017
v -0.352491 1.090206 -0.946017
v -0.352491 1.447220 -0.946017
v -0.154098 -0.905278 -0.946017
v -0.154098 -0.905279 0.702470
v -0.154098 -0.682544 0.702470
v -0.352491 1.447219 0.702470
v -0.154098 1.447219 0.702470
v 0.105794 -0.606736 0.702470
v 0.105796 -0.905279 0.702470
v 0.105796 -0.905278 -0.946017
v 0.105794 -0.606736 -0.946017
v 0.105794 1.271803 0.702470
v -0.154098 1.090206 0.702470
v 0.105794 0.854699 0.702470
v 0.105794 -0.560656 -0.860723
v 0.105794 -0.560656 0.617177
v -0.352491 1.090206 0.702470
v -0.154098 -0.682544 -0.946017
v -0.352491 -0.616501 -1.032768
v -0.154098 -0.616501 -1.032768
v -0.154098 1.024164 -1.032768
v -0.352491 1.024164 -1.032768
v -0.352491 1.024164 0.789222
v -0.352491 -0.616501 0.789222
v -0.154098 -0.616501 0.789222
v -0.154098 1.024164 0.789222
v 0.299375 -0.560656 -0.860723
v 0.299375 -0.560656 0.617177
v 0.105794 0.808619 0.617177
v 0.105794 0.808619 -0.860723
v 0.299375 -0.466688 -0.759301
v 0.299375 -0.466688 0.515754
v 0.299375 0.808619 0.617177
v 0.299375 0.808619 -0.860723
v 0.299375 0.714651 0.515754
v 0.299375 0.714651 -0.759301
v -0.206809 0.017509 -0.550954
v -0.206809 0.017509 -0.701746
v -0.203088 -0.011942 -0.701746
v -0.203088 -0.011942 -0.550954
v -0.053708 0.570568 0.257596
v 0.043521 0.598691 0.257596
v 0.043521 0.598691 -0.501142
v -0.053708 0.570568 -0.501142
vn 0.681300 0.732000 0.000000
vn 0.934000 -0.357200 -0.000000
vn 0.985900 0.167400 0.000000
vn -0.972700 0.232000 0.000000
vn 0.000000 0.000000 -1.000000
vn 0.972700 -0.232000 -0.000000
vn 0.000000 0.000000 1.000000
vn -0.232000 -0.972700 -0.000000
vn 0.232000 0.972700 0.000000
vn -0.972700 0.232100 0.000000
vn -1.000000 0.000000 0.000000
vn 0.000000 -1.000000 -0.000000
vn 0.000000 1.000000 0.000000
vn 1.000000 0.000000 0.000000
vn 0.559400 0.828900 0.000000
vn 0.000000 -0.795700 -0.605700
vn 0.000000 0.795700 -0.605700
vn 0.000000 -0.795700 0.605700
vn 0.000000 0.795700 0.605700
vn 0.125400 -0.992100 -0.000000
vn 0.992100 0.125300 -0.000000
vn -0.125200 0.992100 0.000000
vn 0.985900 0.167500 -0.000000
vn 0.253800 0.967300 0.000000
vn 0.277800 -0.960600 -0.000000
vn 0.277900 -0.960600 -0.000000
vn 0.293700 0.955900 0.000000
vn 0.566900 0.070100 -0.820800
vn 0.529200 -0.848500 -0.000000
vn 0.566900 0.070100 0.820800
vn -0.971200 0.238300 0.000000
vn 0.238700 0.971100 0.000200
vn 0.239600 0.970900 0.000600
vn 0.239400 0.970900 0.000500
vn 0.238300 0.971200 0.000000
vn 0.239600 0.970900 -0.004300
vn 0.971200 -0.238300 -0.000000
vn 0.167500 -0.985900 -0.000000
vn -0.167500 0.985900 0.000000
vn 0.992800 0.119800 0.000000
vn 0.245300 -0.848200 0.469400
vn 0.245300 -0.848200 -0.469400
vn -0.283900 -0.958900 -0.000000
vn 0.751900 -0.659300 -0.000000
vn -0.125400 0.992100 0.000000
usemtl ATM_LIGHTGRAY
s 1
f 47//1 40//1 39//1 48//1
f 45//2 42//2 41//2 46//2
f 46//3 41//3 40//3 47//3
usemtl ATM_DECLINE
f 131//4 132//4 133//4 134//4
f 132//5 135//5 136//5 133//5
f 135//6 137//6 138//6 136//6
f 137//7 131//7 134//7 138//7
f 134//8 133//8 136//8 138//8
f 137//9 135//9 132//9 131//9
usemtl ATM_ACCEPT
f 123//10 124//10 125//10 126//10
f 124//5 127//5 128//5 125//5
f 127//6 129//6 130//6 128//6
f 129//7 123//7 126//7 130//7
f 126//8 125//8 128//8 130//8
f 129//9 127//9 124//9 123//9
usemtl ATM_CANCEL
f 139//4 140//4 141//4 142//4
f 140//5 143//5 144//5 141//5
f 143//6 145//6 146//6 144//6
f 145//7 139//7 142//7 146//7
f 142//8 141//8 144//8 146//8
f 145//9 143//9 140//9 139//9
usemtl ATM_DARKGRAY
f 155//11 156//11 157//11 158//11
f 159//5 160//5 161//5 162//5
f 163//5 164//5 160//5 159//5
f 158//12 157//12 165//12 166//12
f 155//7 158//7 166//7 167//7
f 164//13 168//13 169//13 160//13
f 170//14 171//14 172//14 173//14
f 166//12 165//12 172//12 171//12
f 167//7 166//7 171//7 170//7
f 160//15 169//15 174//15 161//15
f 169//7 175//7 176//7 174//7
f 175//7 167//7 170//7 176//7
f 174//14 176//14 162//14 161//14
f 170//14 173//14 177//14 178//14
f 168//7 179//7 175//7 169//7
f 180//16 156//16 181//16 182//16
f 157//5 156//5 180//5 165//5
f 163//17 159//17 183//17 184//17
f 165//5 180//5 173//5 172//5
f 180//5 159//5 162//5 173//5
f 168//11 164//11 163//11 179//11
f 179//11 163//11 156//11 155//11
f 185//7 186//7 187//7 188//7
f 181//5 184//5 183//5 182//5
f 155//18 167//18 187//18 186//18
f 175//19 179//19 185//19 188//19
f 159//14 180//14 182//14 183//14
f 167//14 175//14 188//14 187//14
f 156//11 163//11 184//11 181//11
f 179//11 155//11 186//11 185//11
f 178//12 177//12 189//12 190//12
f 162//14 176//14 191//14 192//14
f 173//14 162//14 192//14 177//14
f 176//14 170//14 178//14 191//14
f 190//14 189//14 193//14 194//14
f 192//13 191//13 195//13 196//13
f 177//5 192//5 196//5 189//5
f 191//7 178//7 190//7 195//7
f 194//13 193//13 2//13 1//13
f 196//14 195//14 197//14 198//14
f 189//14 196//14 198//14 193//14
f 195//14 190//14 194//14 197//14
f 198//12 197//12 9//12 8//12
f 193//7 198//7 8//7 2//7
f 197//5 194//5 1//5 9//5
f 28//20 27//20 199//20 200//20
f 200//21 199//21 148//21 147//21
f 38//22 37//22 201//22 202//22
f 27//5 38//5 202//5 199//5
f 37//7 28//7 200//7 201//7
f 202//21 201//21 154//21 153//21
f 199//21 202//21 153//21 148//21
f 201//21 200//21 147//21 154//21
usemtl ATM_BUTTONS
f 51//10 52//10 53//10 54//10
f 52//5 55//5 56//5 53//5
f 55//6 57//6 58//6 56//6
f 57//7 51//7 54//7 58//7
f 54//8 53//8 56//8 58//8
f 57//9 55//9 52//9 51//9
f 59//10 60//10 61//10 62//10
f 60//5 63//5 64//5 61//5
f 63//6 65//6 66//6 64//6
f 65//7 59//7 62//7 66//7
f 62//8 61//8 64//8 66//8
f 65//9 63//9 60//9 59//9
f 67//10 68//10 69//10 70//10
f 68//5 71//5 72//5 69//5
f 71//6 73//6 74//6 72//6
f 73//7 67//7 70//7 74//7
f 70//8 69//8 72//8 74//8
f 73//9 71//9 68//9 67//9
f 75//4 76//4 77//4 78//4
f 76//5 79//5 80//5 77//5
f 79//6 81//6 82//6 80//6
f 81//7 75//7 78//7 82//7
f 78//8 77//8 80//8 82//8
f 81//9 79//9 76//9 75//9
f 83//4 84//4 85//4 86//4
f 84//5 87//5 88//5 85//5
f 87//6 89//6 90//6 88//6
f 89//7 83//7 86//7 90//7
f 86//8 85//8 88//8 90//8
f 89//9 87//9 84//9 83//9
f 91//4 92//4 93//4 94//4
f 92//5 95//5 96//5 93//5
f 95//6 97//6 98//6 96//6
f 97//7 91//7 94//7 98//7
f 94//8 93//8 96//8 98//8
f 97//9 95//9 92//9 91//9
f 99//4 100//4 101//4 102//4
f 100//5 103//5 104//5 101//5
f 103//6 105//6 106//6 104//6
f 105//7 99//7 102//7 106//7
f 102//8 101//8 104//8 106//8
f 105//9 103//9 100//9 99//9
f 107//4 108//4 109//4 110//4
f 108//5 111//5 112//5 109//5
f 111//6 113//6 114//6 112//6
f 113//7 107//7 110//7 114//7
f 110//8 109//8 112//8 114//8
f 113//9 111//9 108//9 107//9
f 115//4 116//4 117//4 118//4
f 116//5 119//5 120//5 117//5
f 119//6 121//6 122//6 120//6
f 121//7 115//7 118//7 122//7
f 118//8 117//8 120//8 122//8
f 121//9 119//9 116//9 115//9
usemtl ATM_BODY
f 1//14 2//14 3//14 4//14
f 3//23 5//23 6//23 7//23
f 8//14 9//14 10//14 11//14
f 2//14 8//14 11//14 3//14
f 9//14 1//14 4//14 10//14
f 12//24 13//24 14//24 15//24
f 10//25 16//26 17//26 18//25
f 3//7 11//7 19//7 12//7 5//7
f 10//5 4//5 20//5 13//5 16//5
f 13//21 12//21 21//21 22//21
f 22//27 21//27 23//27 24//27
f 16//21 13//21 22//21 25//21
f 19//21 16//21 25//21 26//21
f 19//21 26//21 27//21 28//21
f 25//28 22//28 24//28 29//28
f 26//29 25//29 29//29 30//29
f 21//30 26//30 30//30 23//30
f 15//31 14//31 31//31 32//31
f 5//32 12//33 15//33 33//34
f 20//35 5//32 33//34 34//35
f 13//36 20//36 34//36 14//36
f 31//35 35//35 36//35 32//35
f 33//5 15//5 32//5 36//5
f 34//37 33//37 36//37 35//37
f 14//7 34//7 35//7 31//7
f 21//21 12//21 37//21 38//21
f 26//21 21//21 38//21 27//21
f 12//21 19//21 28//21 37//21
f 7//7 6//7 39//7 40//7 41//7 42//7
f 20//23 4//23 43//23 44//23
f 5//23 20//23 44//23 6//23
f 4//23 3//23 7//23 43//23
f 44//5 43//5 45//5 46//5 47//5 48//5
f 6//38 44//38 48//38 39//38
f 43//39 7//39 42//39 45//39
f 19//26 11//25 49//25 50//26
f 16//26 19//26 50//26 17//26
f 11//25 10//25 18//25 49//25
usemtl ATM_SCREEN
f 29//40 24//40 23//40 30//40
usemtl ATM_LIGHT
f 18//41 17//41 203//41 204//41
f 205//26 204//26 203//26 206//26
f 50//42 49//42 205//42 206//42
f 17//43 50//43 206//43 203//43
f 49//44 18//44 204//44 205//44
usemtl ATM_BLACK
f 147//20 148//20 149//20 150//20
f 151//21 150//21 149//21 152//21
f 153//45 154//45 151//45 152//45
f 148//5 153//5 152//5 149//5
f 154//7 147//7 150//7 151//7
