# Blender v2.74 (sub 0) OBJ File: ''
# www.blender.org
mtllib ATM_WALL.mtl
o Plane
v 0.247782 -0.624237 -0.732293
v 0.247782 -0.754384 -0.732293
v 0.247782 -0.754384 -0.861770
v 0.247782 -0.624237 -0.861770
v 0.247782 1.554676 -0.732292
v 0.247782 1.424528 -0.732292
v 0.247782 1.424528 -0.861769
v 0.247782 1.554676 -0.861769
v 0.247782 1.212971 -0.732292
v 0.247782 1.212971 -0.861769
v 0.247782 1.212971 0.538231
v 0.247782 -0.624237 0.538230
v 0.247782 -0.624237 0.408754
v 0.247782 1.212971 0.408755
v 0.193098 1.424528 -0.732292
v 0.193098 1.212971 -0.732292
v 0.247782 1.554676 0.538231
v 0.247782 1.424528 0.538231
v 0.247782 1.424528 0.408755
v 0.247782 1.554676 0.408755
v 0.247782 -0.754384 0.538230
v 0.247782 -0.754384 0.408754
v 0.193098 1.212971 0.408755
v -0.434015 0.803594 0.408754
v -0.193232 0.958401 0.258846
v -0.038067 1.058163 0.258846
v 0.193099 -0.624237 0.408754
v 0.193099 -0.624237 -0.732293
v 0.193098 1.424528 0.408755
v -0.165412 -0.113228 -0.732293
v -0.165412 -0.113228 0.408754
v -0.077937 -0.166429 0.245669
v -0.081998 -0.164627 0.236823
v -0.081998 -0.164627 0.005900
v -0.077937 -0.166429 -0.002946
v 0.155502 -0.310972 -0.732293
v 0.172547 -0.424062 -0.513751
v 0.185672 -0.511146 -0.513751
v 0.155502 -0.310972 0.408754
v -0.165412 0.035828 0.408754
v -0.434015 0.803594 -0.732293
v -0.165412 0.035828 -0.732293
v -0.165412 -0.024623 -0.479842
v -0.165412 -0.024623 -0.661124
v -0.187806 0.099837 -0.625422
v -0.187806 0.099837 0.301882
v -0.411621 0.739585 0.301883
v -0.411621 0.739585 -0.625421
v 0.139574 -0.429032 -0.513751
v 0.157839 -0.455595 -0.513751
v 0.162214 -0.484623 -0.513751
v 0.152699 -0.516116 -0.513751
v 0.185672 -0.511146 0.190211
v 0.172547 -0.424062 0.190211
v 0.152699 -0.516116 0.190211
v 0.162214 -0.484623 0.190211
v 0.157839 -0.455595 0.190211
v 0.139574 -0.429032 0.190211
v 0.068653 -0.256756 -0.002946
v 0.072088 -0.259573 0.005900
v 0.072088 -0.259573 0.236823
v 0.068653 -0.256756 0.245669
v 0.054967 -0.249023 0.252026
v -0.064877 -0.175177 0.252026
v -0.064877 -0.175177 -0.009303
v 0.054967 -0.249023 -0.009303
v -0.165412 -0.052777 -0.661124
v -0.165412 -0.052777 -0.479842
v -0.038067 1.058163 -0.582384
v -0.193232 0.958401 -0.582384
v 0.096162 -0.624237 -0.861770
v 0.096162 1.212971 -0.861769
v 0.096162 1.424528 0.538231
v 0.096162 1.212971 0.538231
v 0.096162 -0.754384 0.408754
v 0.096162 -0.754384 -0.732293
v 0.096162 -0.754384 0.538230
v 0.096162 1.554676 -0.732292
v 0.096162 1.554676 0.408755
v 0.096162 1.554676 -0.861769
v 0.096162 1.424528 -0.861769
v 0.096162 -0.754384 -0.861770
v 0.096162 -0.624237 0.538230
v 0.096162 1.554676 0.538231
v -0.273158 0.069977 0.301882
v -0.273158 0.069977 -0.625422
v -0.271927 0.113061 -0.565042
v -0.271927 0.113061 0.241503
v -0.270772 0.143755 -0.523486
v -0.270772 0.143755 0.199946
v -0.496974 0.709724 -0.625421
v -0.496974 0.709724 0.301883
v -0.466596 0.669497 0.241503
v -0.466596 0.669497 -0.565041
v -0.445380 0.642851 0.199947
v -0.445380 0.642851 -0.523486
v -0.065699 -0.146569 0.245669
v -0.069134 -0.143751 0.236823
v -0.065699 -0.146569 -0.002946
v -0.052013 -0.154301 -0.009303
v 0.080890 -0.236895 0.245669
v 0.067831 -0.228148 0.252026
v 0.080890 -0.236895 -0.002946
v 0.084951 -0.238697 0.005900
v 0.084951 -0.238697 0.236823
v -0.069134 -0.143751 0.005900
v -0.052013 -0.154301 0.252026
v 0.067831 -0.228148 -0.009303
v 0.047999 -0.213240 0.212849
v 0.047999 -0.213240 0.173810
v 0.044870 -0.218257 0.173810
v 0.044870 -0.218257 0.212849
v 0.070102 -0.227026 0.173810
v 0.066973 -0.232043 0.173810
v 0.070102 -0.227026 0.212849
v 0.066973 -0.232043 0.212849
v 0.047999 -0.213240 0.162849
v 0.047999 -0.213240 0.123810
v 0.044870 -0.218257 0.123810
v 0.044870 -0.218257 0.162849
v 0.070102 -0.227026 0.123810
v 0.066973 -0.232043 0.123810
v 0.070102 -0.227026 0.162849
v 0.066973 -0.232043 0.162849
v 0.047999 -0.213240 0.112849
v 0.047999 -0.213240 0.073810
v 0.044870 -0.218257 0.073810
v 0.044870 -0.218257 0.112849
v 0.070102 -0.227026 0.073810
v 0.066973 -0.232043 0.073810
v 0.070102 -0.227026 0.112849
v 0.066973 -0.232043 0.112849
v 0.007989 -0.186984 0.212849
v 0.007989 -0.186984 0.173811
v 0.004860 -0.192001 0.173811
v 0.004860 -0.192001 0.212849
v 0.030092 -0.200770 0.173811
v 0.026963 -0.205787 0.173811
v 0.030092 -0.200770 0.212849
v 0.026963 -0.205787 0.212849
v 0.007989 -0.186984 0.162849
v 0.007989 -0.186984 0.123810
v 0.004860 -0.192001 0.123810
v 0.004860 -0.192001 0.162849
v 0.030092 -0.200770 0.123810
v 0.026963 -0.205787 0.123810
v 0.030092 -0.200770 0.162849
v 0.026963 -0.205787 0.162849
v 0.007989 -0.186984 0.112849
v 0.007989 -0.186984 0.073810
v 0.004860 -0.192001 0.073810
v 0.004860 -0.192001 0.112849
v 0.030092 -0.200770 0.073810
v 0.026963 -0.205787 0.073810
v 0.030092 -0.200770 0.112849
v 0.026963 -0.205787 0.112849
v -0.030146 -0.163228 0.212849
v -0.030146 -0.163228 0.173811
v -0.033275 -0.168245 0.173811
v -0.033275 -0.168245 0.212849
v -0.008043 -0.177014 0.173811
v -0.011172 -0.182031 0.173811
v -0.008043 -0.177014 0.212849
v -0.011172 -0.182031 0.212849
v -0.030146 -0.163228 0.162849
v -0.030146 -0.163228 0.123810
v -0.033275 -0.168245 0.123810
v -0.033275 -0.168245 0.162849
v -0.008043 -0.177014 0.123810
v -0.011172 -0.182031 0.123810
v -0.008043 -0.177014 0.162849
v -0.011172 -0.182031 0.162849
v -0.030146 -0.163228 0.112849
v -0.030146 -0.163228 0.073810
v -0.033275 -0.168245 0.073810
v -0.033275 -0.168245 0.112849
v -0.008043 -0.177014 0.073810
v -0.011172 -0.182031 0.073810
v -0.008043 -0.177014 0.112849
v -0.011172 -0.182031 0.112849
v -0.178826 0.947065 0.231545
v -0.033732 1.040351 0.231545
v -0.033732 1.040351 -0.555083
v -0.178826 0.947065 -0.555083
v 0.047999 -0.213240 0.007486
v 0.070102 -0.227026 0.007486
v 0.066973 -0.232043 0.007486
v 0.044870 -0.218257 0.007486
v 0.047999 -0.213240 0.046525
v 0.044870 -0.218257 0.046525
v 0.070102 -0.227026 0.046525
v 0.066973 -0.232043 0.046525
v 0.007989 -0.186984 0.046525
v 0.007989 -0.186984 0.007486
v 0.004860 -0.192001 0.007486
v 0.004860 -0.192001 0.046525
v 0.030092 -0.200770 0.007486
v 0.026963 -0.205787 0.007486
v 0.030092 -0.200770 0.046525
v 0.026963 -0.205787 0.046525
v -0.030146 -0.163228 0.046525
v -0.030146 -0.163228 0.007486
v -0.033275 -0.168245 0.007486
v -0.033275 -0.168245 0.046525
v -0.008043 -0.177014 0.007486
v -0.011172 -0.182031 0.007486
v -0.008043 -0.177014 0.046525
v -0.011172 -0.182031 0.046525
v -0.182010 -0.035006 -0.496106
v -0.182010 -0.042395 -0.496106
v -0.182010 -0.042395 -0.644860
v -0.182010 -0.035006 -0.644860
v -0.066602 -0.100021 0.121361
v -0.066602 -0.100021 0.006954
v -0.100385 -0.157916 0.006954
v -0.100385 -0.157916 0.121361
v -0.086637 -0.166865 0.006954
v -0.099812 -0.158289 -0.013528
v -0.087210 -0.166492 -0.007452
v -0.086637 -0.166865 0.121361
v -0.045337 -0.090582 0.121361
v -0.045337 -0.090582 0.006954
v -0.052829 -0.085705 0.006954
v -0.052829 -0.085705 0.121361
v -0.052855 -0.108971 0.006954
v -0.052855 -0.108971 0.121361
v -0.081625 -0.170129 -0.028451
v -0.075192 -0.174316 -0.015019
v -0.053428 -0.108598 -0.007452
v -0.042305 -0.092556 -0.011250
v -0.050100 -0.087482 -0.014661
v -0.066029 -0.100394 -0.013528
v 0.089465 -0.275777 -0.028451
v 0.089465 -0.275777 -0.015019
v -0.041409 -0.116422 -0.015019
v -0.034871 -0.097396 -0.015498
v -0.038850 -0.094805 -0.023040
v -0.047842 -0.112234 -0.028451
v 0.123248 -0.217883 -0.028451
v 0.123248 -0.217883 -0.015019
v 0.124577 -0.195466 -0.017874
v 0.124577 -0.195466 -0.025596
v -0.100385 -0.157916 0.235769
v -0.066602 -0.100021 0.235769
v -0.086637 -0.166865 0.235769
v -0.087210 -0.166492 0.250175
v -0.099812 -0.158289 0.256251
v -0.052829 -0.085705 0.235769
v -0.045337 -0.090582 0.235769
v -0.052855 -0.108971 0.235769
v -0.075192 -0.174316 0.257741
v -0.081625 -0.170129 0.271174
v -0.053428 -0.108598 0.250175
v -0.050100 -0.087482 0.257384
v -0.042305 -0.092556 0.253973
v -0.066029 -0.100394 0.256251
v 0.089465 -0.275777 0.257741
v 0.089465 -0.275777 0.271174
v -0.041409 -0.116422 0.257741
v -0.038850 -0.094805 0.265763
v -0.034871 -0.097396 0.258221
v -0.047842 -0.112234 0.271174
v 0.123248 -0.217883 0.271174
v 0.123248 -0.217883 0.257741
v 0.124577 -0.195466 0.268319
v 0.124577 -0.195466 0.260597
v -0.182010 -0.024623 -0.479842
v -0.182010 -0.024623 -0.661124
v -0.182010 -0.052777 -0.661124
v -0.182010 -0.052777 -0.479842
vn -0.848500 0.529200 0.000000
vn 0.000000 0.000000 -1.000000
vn 0.848500 -0.529200 0.000000
vn 0.000000 -0.000000 1.000000
vn 0.529200 0.848500 0.000000
vn 0.456600 -0.710200 0.535800
vn 0.540800 -0.841100 -0.000000
vn 0.456600 -0.710200 -0.535800
vn -0.618400 -0.785900 -0.000000
vn 0.971600 0.236500 0.000000
vn 0.824000 0.566600 0.000000
vn 0.957300 -0.289200 -0.000000
vn 0.988800 0.149000 0.000000
vn 1.000000 -0.000000 0.000000
vn -0.863700 0.504000 0.000000
vn -0.545500 -0.838100 -0.000000
vn 0.545600 0.838100 0.000000
vn 0.863700 -0.504000 -0.000000
vn -0.545600 -0.838100 0.000100
vn 0.862700 -0.503400 -0.047400
vn -0.674800 0.732400 -0.090300
vn -0.525000 -0.851100 -0.006900
vn 0.403500 -0.235400 0.884200
vn -0.375600 0.424700 -0.823800
vn 0.524200 0.851500 0.007900
vn 0.101500 0.176800 -0.979000
vn 0.050700 0.070500 0.996200
vn 0.998200 -0.059200 0.000000
vn -0.489800 0.285800 -0.823700
vn 0.456000 -0.122100 0.881600
vn -0.863200 0.503700 -0.033300
vn 0.880000 -0.466600 0.089300
vn 0.925600 -0.378400 -0.000000
vn -0.720600 0.693300 0.000000
vn -0.545600 -0.838100 -0.000100
vn 0.862700 -0.503400 0.047400
vn -0.674800 0.732400 0.090300
vn -0.525000 -0.851100 0.006900
vn 0.403400 -0.235400 -0.884200
vn -0.375600 0.424700 0.823800
vn 0.524200 0.851500 -0.007900
vn 0.101600 0.176800 0.979000
vn 0.050700 0.070600 -0.996200
vn -0.489800 0.285800 0.823700
vn 0.455900 -0.122100 -0.881600
vn -0.863200 0.503700 0.033300
vn 0.880000 -0.466600 -0.089300
vn -0.330200 0.943900 0.000000
vn 0.330200 -0.943900 -0.000000
vn 0.000000 -1.000000 -0.000000
vn 0.000000 1.000000 0.000000
vn -0.762200 0.469700 0.445600
vn -0.319400 0.196800 -0.927000
vn 0.319400 -0.196800 0.927000
vn 0.762200 -0.469600 -0.445500
vn 0.762200 -0.469600 0.445500
vn 0.851400 -0.524600 -0.000000
vn -0.762200 0.469700 -0.445600
vn -0.851300 0.524600 0.000000
vn -0.319400 0.196800 0.927000
vn 0.319400 -0.196800 -0.927000
vn 0.524600 0.851400 0.000000
vn 0.999600 -0.028600 -0.000000
vn 0.999300 -0.037600 -0.000000
vn 0.798000 0.602600 0.000000
vn 0.914700 0.320000 -0.247000
vn 0.914700 0.320000 0.247000
vn 0.943900 0.330200 0.000000
vn 0.782300 0.622900 0.000000
vn 0.911200 0.318800 -0.260800
vn 0.911200 0.318800 0.260800
vn 0.545400 -0.838000 0.017500
vn 0.521300 0.853400 0.000000
vn 0.991800 0.125700 -0.021800
vn 0.991800 0.125700 0.021800
vn 0.997900 0.065500 0.000000
vn 0.149000 -0.988800 -0.000000
vn -0.149000 0.988800 0.000000
vn 0.527900 0.849300 0.000000
vn 0.524600 0.851400 0.001600
vn 0.524600 0.851400 -0.000400
vn 0.545400 -0.838000 -0.017500
vn 0.556400 -0.830900 0.000000
usemtl ATM_SMALL_BUTTONS
s 1
f 109//1 110//1 111//1 112//1
f 110//2 113//2 114//2 111//2
f 113//3 115//3 116//3 114//3
f 115//4 109//4 112//4 116//4
f 115//5 113//5 110//5 109//5
f 117//1 118//1 119//1 120//1
f 118//2 121//2 122//2 119//2
f 121//3 123//3 124//3 122//3
f 123//4 117//4 120//4 124//4
f 123//5 121//5 118//5 117//5
f 125//1 126//1 127//1 128//1
f 126//2 129//2 130//2 127//2
f 129//3 131//3 132//3 130//3
f 131//4 125//4 128//4 132//4
f 131//5 129//5 126//5 125//5
f 133//1 134//1 135//1 136//1
f 134//2 137//2 138//2 135//2
f 137//3 139//3 140//3 138//3
f 139//4 133//4 136//4 140//4
f 139//5 137//5 134//5 133//5
f 141//1 142//1 143//1 144//1
f 142//2 145//2 146//2 143//2
f 145//3 147//3 148//3 146//3
f 147//4 141//4 144//4 148//4
f 147//5 145//5 142//5 141//5
f 149//1 150//1 151//1 152//1
f 150//2 153//2 154//2 151//2
f 153//3 155//3 156//3 154//3
f 155//4 149//4 152//4 156//4
f 155//5 153//5 150//5 149//5
f 157//1 158//1 159//1 160//1
f 158//2 161//2 162//2 159//2
f 161//3 163//3 164//3 162//3
f 163//4 157//4 160//4 164//4
f 163//5 161//5 158//5 157//5
f 165//1 166//1 167//1 168//1
f 166//2 169//2 170//2 167//2
f 169//3 171//3 172//3 170//3
f 171//4 165//4 168//4 172//4
f 171//5 169//5 166//5 165//5
f 173//1 174//1 175//1 176//1
f 174//2 177//2 178//2 175//2
f 177//3 179//3 180//3 178//3
f 179//4 173//4 176//4 180//4
f 179//5 177//5 174//5 173//5
f 26//6 25//6 181//6 182//6
f 183//7 182//7 181//7 184//7
f 70//8 69//8 183//8 184//8
f 25//9 70//9 184//9 181//9
f 69//10 26//10 182//10 183//10
usemtl ATM_SMALL_CASHSLOT
f 50//11 49//11 58//11 57//11
f 52//12 51//12 56//12 55//12
f 51//13 50//13 57//13 56//13
usemtl ATM_SMALL_BLACK
f 209//14 210//14 211//14 212//14
usemtl DarkerGray
f 213//15 214//15 215//15 216//15
f 217//16 215//16 218//16 219//16
f 216//16 215//16 217//16 220//16
f 221//17 222//17 223//17 224//17
f 225//18 226//18 220//18 217//18
f 219//16 218//16 227//19 228//19
f 225//20 217//20 219//20 229//20
f 223//17 222//17 230//17 231//17
f 214//21 223//21 231//21 232//21
f 228//22 227//22 233//22 234//22
f 229//23 219//23 228//23 235//23
f 231//17 230//17 236//17 237//17
f 232//24 231//24 237//24 238//24
f 239//18 240//18 234//18 233//18
f 235//4 228//4 234//4 240//4
f 237//25 236//25 241//25 242//25
f 238//26 237//26 242//26 239//26
f 227//2 238//2 239//2 233//2
f 236//27 235//27 240//27 241//27
f 242//28 241//28 240//28 239//28
f 218//29 232//29 238//29 227//29
f 230//30 229//30 235//30 236//30
f 215//31 214//31 232//31 218//31
f 222//32 225//32 229//32 230//32
f 222//33 221//33 226//33 225//33
f 224//34 223//34 214//34 213//34
f 213//15 216//15 243//15 244//15
f 245//16 246//16 247//16 243//16
f 216//16 220//16 245//16 243//16
f 221//17 224//17 248//17 249//17
f 250//18 245//18 220//18 226//18
f 246//16 251//35 252//35 247//16
f 250//36 253//36 246//36 245//36
f 248//17 254//17 255//17 249//17
f 244//37 256//37 254//37 248//37
f 251//38 257//38 258//38 252//38
f 253//39 259//39 251//39 246//39
f 254//17 260//17 261//17 255//17
f 256//40 262//40 260//40 254//40
f 263//18 258//18 257//18 264//18
f 259//2 264//2 257//2 251//2
f 260//41 265//41 266//41 261//41
f 262//42 263//42 265//42 260//42
f 252//4 258//4 263//4 262//4
f 261//43 266//43 264//43 259//43
f 265//28 263//28 264//28 266//28
f 247//44 252//44 262//44 256//44
f 255//45 261//45 259//45 253//45
f 243//46 247//46 256//46 244//46
f 249//47 255//47 253//47 250//47
f 249//33 250//33 226//33 221//33
f 224//34 213//34 244//34 248//34
f 46//48 45//48 86//48 85//48
f 48//49 47//49 92//49 91//49
f 45//4 48//4 91//4 86//4
f 47//2 46//2 85//2 92//2
f 44//50 43//50 267//50 268//50
f 268//14 267//14 209//14 212//14
f 67//4 44//4 268//4 269//4
f 43//2 68//2 270//2 267//2
f 68//51 67//51 269//51 270//51
f 269//14 268//14 212//14 211//14
f 267//14 270//14 210//14 209//14
f 270//14 269//14 211//14 210//14
usemtl ATM_SMALL_KEYPAD
f 33//52 32//52 97//52 98//52
f 65//53 35//53 99//53 100//53
f 63//54 62//54 101//54 102//54
f 60//55 59//55 103//55 104//55
f 62//56 61//56 105//56 101//56
f 61//57 60//57 104//57 105//57
f 35//58 34//58 106//58 99//58
f 34//59 33//59 98//59 106//59
f 63//4 102//4 107//4 64//4
f 108//2 66//2 65//2 100//2
f 32//60 64//60 107//60 97//60
f 59//61 66//61 108//61 103//61
f 103//62 108//62 100//62 99//62 106//62 98//62 97//62 107//62 102//62 101//62 105//62 104//62
usemtl ATM_SMALL_DECLINE
f 201//1 202//1 203//1 204//1
f 202//2 205//2 206//2 203//2
f 205//3 207//3 208//3 206//3
f 207//4 201//4 204//4 208//4
f 207//5 205//5 202//5 201//5
usemtl ATM_SMALL_CANCEL
f 193//1 194//1 195//1 196//1
f 194//2 197//2 198//2 195//2
f 197//3 199//3 200//3 198//3
f 199//4 193//4 196//4 200//4
f 199//5 197//5 194//5 193//5
usemtl ATM_SMALL_ACCEPT
f 185//2 186//2 187//2 188//2
f 189//1 185//1 188//1 190//1
f 191//5 186//5 185//5 189//5
f 191//4 189//4 190//4 192//4
f 186//3 191//3 192//3 187//3
usemtl ATM_SMALL_SCREEN
f 85//63 86//63 87//63 88//63
f 88//64 87//64 89//64 90//64
f 91//65 92//65 93//65 94//65
f 86//66 91//66 94//66 87//66
f 92//67 85//67 88//67 93//67
f 95//68 90//68 89//68 96//68
f 94//69 93//69 95//69 96//69
f 87//70 94//70 96//70 89//70
f 93//71 88//71 90//71 95//71
usemtl ATM_SMALL_BODY
f 1//14 2//14 3//14 4//14
f 5//14 6//14 7//14 8//14
f 9//14 1//14 4//14 10//14
f 11//14 12//14 13//14 14//14
f 9//4 6//4 15//4 16//4
f 17//14 18//14 19//14 20//14
f 20//14 19//14 6//14 5//14
f 12//14 21//14 22//14 13//14
f 13//14 22//14 2//14 1//14
f 23//72 24//72 25//72 26//72
f 14//2 13//2 27//2 23//2
f 13//51 1//51 28//51 27//51
f 6//50 19//50 29//50 15//50
f 19//2 14//2 23//2 29//2
f 29//14 23//14 16//14 15//14
f 1//4 9//4 16//4 28//4
f 18//14 11//14 14//14 19//14
f 6//14 9//14 10//14 7//14
f 30//73 31//73 32//73 33//73 34//73 35//73
f 28//74 36//74 37//74 38//74
f 23//2 27//2 39//2 31//2 40//2 24//2
f 16//4 41//4 42//4 30//4 36//4 28//4
f 42//14 40//14 43//14 44//14
f 40//68 42//68 45//68 46//68
f 41//68 24//68 47//68 48//68
f 42//68 41//68 48//68 45//68
f 24//68 40//68 46//68 47//68
f 38//4 37//4 49//4 50//4 51//4 52//4
f 39//75 27//75 53//75 54//75
f 36//13 39//13 54//13 37//13
f 27//76 28//76 38//76 53//76
f 54//2 53//2 55//2 56//2 57//2 58//2
f 37//77 54//77 58//77 49//77
f 53//78 38//78 52//78 55//78
f 39//79 36//79 59//79 60//79 61//79 62//79
f 39//80 62//80 63//80 64//80 32//80 31//80
f 59//81 36//81 30//81 35//81 65//81 66//81
f 30//14 42//14 44//14 67//14
f 40//14 31//14 68//14 43//14
f 31//14 30//14 67//14 68//14
f 41//82 16//82 69//82 70//82
f 24//7 41//7 70//7 25//7
f 16//83 23//83 26//83 69//83
f 10//2 4//2 71//2 72//2
f 11//4 18//4 73//4 74//4
f 2//50 22//50 75//50 76//50
f 22//50 21//50 77//50 75//50
f 20//51 5//51 78//51 79//51
f 5//51 8//51 80//51 78//51
f 7//2 10//2 72//2 81//2
f 4//2 3//2 82//2 71//2
f 12//4 11//4 74//4 83//4
f 18//4 17//4 84//4 73//4
f 8//2 7//2 81//2 80//2
f 3//50 2//50 76//50 82//50
f 21//4 12//4 83//4 77//4
f 17//51 20//51 79//51 84//51
